<svg width="180" height="47" viewBox="0 0 180 47" fill="none" xmlns="http://www.w3.org/2000/svg">
<g clip-path="url(#clip0)">
<path d="M7.09583 43.643L1.66073 36.509H0V46.8093H1.77396V39.4847L7.36003 46.8093H8.86978V36.509H7.09583V43.643Z" fill="#414042"/>
<path d="M12.1156 42.4222H17.211V40.8199H12.1156V38.1113H17.8904V36.509H10.3417V46.8093H17.9659V45.1689H12.1156V42.4222Z" fill="#414042"/>
<path d="M25.6658 42.4222C25.6658 44.3296 24.6844 45.2834 23.0992 45.2834C21.514 45.2834 20.5326 44.2533 20.5326 42.3459V36.509H18.7587V42.4222C18.7587 45.3978 20.4571 46.962 23.0992 46.962C25.779 46.962 27.4775 45.436 27.4775 42.3459V36.509H25.6658V42.4222Z" fill="#414042"/>
<path d="M41.7446 36.4327L37.3286 46.6568L34.6865 42.9181C36.1208 42.4985 37.1021 41.5066 37.1021 39.7899V39.7517C37.1021 38.8361 36.8001 38.0732 36.2717 37.5391C35.6301 36.8905 34.611 36.509 33.3277 36.509H28.7985V46.8094H30.5724V43.2233H32.7993L35.2904 46.8094H37.2531H37.404H39.0648L40.1216 44.3297H44.9528L45.9719 46.8094H47.8591L43.4053 36.4327H41.7446ZM30.5724 41.6211V38.1495H33.1767C34.4978 38.1495 35.2904 38.7599 35.2904 39.8662V39.9043C35.2904 40.9344 34.46 41.6211 33.1767 41.6211H30.5724ZM40.801 42.7274L42.5372 38.6073L44.3111 42.7274H40.801Z" fill="#414042"/>
<path d="M50.2369 36.509H48.4629V46.8093H55.5965V45.1689H50.2369V36.509Z" fill="#414042"/>
<path d="M63.4096 40.8199C61.4469 40.3621 60.994 39.9806 60.994 39.2176V39.1795C60.994 38.4928 61.5979 37.9587 62.6547 37.9587C63.5983 37.9587 64.5042 38.3402 65.41 39.0269L66.3536 37.6535C65.3345 36.8142 64.1267 36.3564 62.6547 36.3564C60.6165 36.3564 59.1823 37.5772 59.1823 39.3321V39.3702C59.1823 41.2777 60.3901 41.9262 62.5792 42.4603C64.4664 42.9181 64.8816 43.2996 64.8816 44.0245V44.0626C64.8816 44.8256 64.2022 45.3597 63.0699 45.3597C61.7866 45.3597 60.843 44.8637 59.8617 44.0245L58.7671 45.3215C59.9749 46.4279 61.4469 46.962 63.0321 46.962C65.1835 46.962 66.6556 45.8175 66.6556 43.8719V43.8337C66.6933 42.1551 65.561 41.354 63.4096 40.8199Z" fill="#414042"/>
<path d="M69.4485 42.4222H74.544V40.8199H69.4485V38.1113H75.1856V36.509H67.6368V46.8093H75.2611V45.1689H69.4485V42.4222Z" fill="#414042"/>
<path d="M81.2246 41.3921L78.1296 36.509H76.2424V46.8093H77.9786V39.4465L81.1869 44.2915H81.2246L84.4706 39.4084V46.8093H86.2445V36.509H84.3196L81.2246 41.3921Z" fill="#414042"/>
<path d="M89.5659 36.509H87.792V46.8093H89.5659V36.509Z" fill="#414042"/>
<path d="M95.9446 45.3215C93.9819 45.3215 92.5854 43.6811 92.5854 41.6592V41.6211C92.5854 39.5991 93.9819 37.9969 95.9446 37.9969C97.1147 37.9969 97.9828 38.531 98.8131 39.2939L99.9454 37.9587C98.9641 37.005 97.8318 36.3564 95.9446 36.3564C92.8496 36.3564 90.6982 38.7599 90.6982 41.6974V41.7355C90.6982 44.673 92.9251 47.0383 95.8691 47.0383C97.794 47.0383 98.9264 46.3516 99.9832 45.2071L98.8509 44.0245C97.9828 44.7874 97.1901 45.3215 95.9446 45.3215Z" fill="#414042"/>
<path d="M105.607 36.3182C102.474 36.3182 100.285 38.7598 100.285 41.6591V41.6973C100.285 44.5966 102.474 47 105.607 47C108.74 47 110.929 44.5585 110.929 41.6591V41.621C110.929 38.7216 108.74 36.3182 105.607 36.3182ZM109.042 41.6973C109.042 43.6811 107.645 45.3215 105.607 45.3215C103.569 45.3215 102.135 43.6429 102.135 41.6591V41.621C102.135 39.6372 103.531 37.9968 105.569 37.9968C107.607 37.9968 109.042 39.6754 109.042 41.6973Z" fill="#414042"/>
<path d="M119.044 43.643L113.571 36.509H111.91V46.8093H113.684V39.4847L119.308 46.8093H120.818V36.509H119.044V43.643Z" fill="#414042"/>
<path d="M126.064 36.509H122.252V46.8093H126.064C129.272 46.8093 131.461 44.5585 131.461 41.6592V41.621C131.461 38.7217 129.272 36.509 126.064 36.509ZM129.574 41.6973C129.574 43.7193 128.178 45.1689 126.026 45.1689H124.026V38.1495H126.026C128.178 38.1495 129.574 39.6373 129.574 41.6973Z" fill="#414042"/>
<path d="M139.237 42.4222C139.237 44.3296 138.255 45.2834 136.67 45.2834C135.085 45.2834 134.104 44.2533 134.104 42.3459V36.509H132.33V42.4222C132.33 45.3978 134.028 46.962 136.67 46.962C139.35 46.962 141.048 45.436 141.048 42.3459V36.509H139.274V42.4222H139.237Z" fill="#414042"/>
<path d="M147.125 45.3215C145.162 45.3215 143.766 43.6811 143.766 41.6592V41.6211C143.766 39.5991 145.162 37.9969 147.125 37.9969C148.295 37.9969 149.163 38.531 149.994 39.2939L151.126 37.9587C150.145 37.005 149.012 36.3564 147.125 36.3564C144.03 36.3564 141.879 38.7599 141.879 41.6974V41.7355C141.879 44.673 144.106 47.0383 147.05 47.0383C148.975 47.0383 150.107 46.3516 151.164 45.2071L150.031 44.0245C149.163 44.7874 148.371 45.3215 147.125 45.3215Z" fill="#414042"/>
<path d="M151.164 38.1876H154.41V46.8093H156.184V38.1876H159.43V36.509H151.164V38.1876Z" fill="#414042"/>
<path d="M165.054 36.3182C161.921 36.3182 159.732 38.7598 159.732 41.6591V41.6973C159.732 44.5966 161.921 47 165.054 47C168.186 47 170.375 44.5585 170.375 41.6591V41.621C170.375 38.7216 168.186 36.3182 165.054 36.3182ZM168.488 41.6973C168.488 43.6811 167.092 45.3215 165.054 45.3215C163.015 45.3215 161.581 43.6429 161.581 41.6591V41.621C161.581 39.6372 162.978 37.9968 165.016 37.9968C167.054 37.9968 168.488 39.6754 168.488 41.6973Z" fill="#414042"/>
<path d="M177.245 42.9181C178.679 42.4985 179.66 41.5066 179.66 39.7899V39.7517C179.66 38.8361 179.358 38.0732 178.83 37.5391C178.188 36.8905 177.169 36.509 175.886 36.509H171.357V46.8093H173.131V43.2233H175.358L177.849 46.8093H179.962L177.245 42.9181ZM173.169 41.621V38.1495H175.773C177.094 38.1495 177.886 38.7598 177.886 39.8662V39.9043C177.886 40.9344 177.056 41.621 175.773 41.621H173.169Z" fill="#414042"/>
<path d="M104.626 27.3149C104.626 28.6883 103.795 29.5657 102.399 29.5657H77.6013C76.2425 29.5657 75.3744 28.7265 75.3744 27.3149V2.25081C75.3744 0.877435 76.2048 0 77.6013 0H102.399C103.758 0 104.626 0.839286 104.626 2.25081V27.3149Z" fill="#007DBE"/>
<path d="M84.7726 0H83.2251V9.15584C82.9987 9.38474 82.8099 9.68993 82.8099 10.0333C82.8099 10.6818 83.3383 11.2159 83.98 11.2159C84.6216 11.2159 85.15 10.6818 85.15 10.0333C85.15 9.68993 84.9991 9.34659 84.7349 9.15584V0H84.7726ZM84.131 10.5674C84.0932 10.5674 84.0555 10.5674 84.0177 10.5674C83.98 10.5674 83.9422 10.5674 83.9045 10.5674C83.6403 10.5292 83.4893 10.3003 83.4893 10.0333C83.4893 9.72808 83.7535 9.46104 84.0555 9.46104C84.3574 9.46104 84.6216 9.72808 84.6216 10.0333C84.5461 10.3003 84.3574 10.5292 84.131 10.5674Z" fill="white"/>
<path d="M80.3566 0H78.8091V5.34091C78.5449 5.5698 78.3939 5.875 78.3939 6.21834C78.3939 6.86688 78.9223 7.40097 79.564 7.40097C80.2056 7.40097 80.734 6.86688 80.734 6.21834C80.734 5.875 80.5831 5.53165 80.3189 5.34091V0H80.3566ZM79.715 6.79058C79.6772 6.79058 79.6395 6.79058 79.6017 6.79058C79.564 6.79058 79.5262 6.79058 79.4885 6.79058C79.2243 6.71428 79.0733 6.52354 79.0733 6.25649C79.0733 5.9513 79.3375 5.68425 79.6395 5.68425C79.9414 5.68425 80.2056 5.9513 80.2056 6.25649C80.1301 6.48539 79.9792 6.71428 79.715 6.79058Z" fill="white"/>
<path d="M102.512 5.56981V0C102.475 0 102.437 0 102.399 0H100.965V5.56981C100.738 5.7987 100.55 6.1039 100.55 6.44724C100.55 7.09578 101.078 7.62987 101.72 7.62987C102.361 7.62987 102.89 7.09578 102.89 6.44724C102.927 6.1039 102.776 5.7987 102.512 5.56981ZM101.871 6.98133C101.833 6.98133 101.795 6.98133 101.757 6.98133C101.72 6.98133 101.682 6.98133 101.644 6.98133C101.38 6.94318 101.229 6.71429 101.229 6.44724C101.229 6.14205 101.493 5.875 101.795 5.875C102.097 5.875 102.361 6.14205 102.361 6.44724C102.286 6.71429 102.097 6.94318 101.871 6.98133Z" fill="white"/>
<path d="M98.0961 0H96.5486V1.75487C96.2844 1.98377 96.1334 2.28896 96.1334 2.63231C96.1334 3.28084 96.6618 3.81494 97.3035 3.81494C97.9451 3.81494 98.4735 3.28084 98.4735 2.63231C98.4735 2.28896 98.3226 1.94562 98.0584 1.75487V0H98.0961ZM97.4545 3.20455C97.4167 3.20455 97.379 3.20455 97.3412 3.20455C97.3035 3.20455 97.2657 3.20455 97.228 3.20455C96.9638 3.1664 96.8128 2.9375 96.8128 2.67045C96.8128 2.36526 97.077 2.09821 97.379 2.09821C97.6809 2.09821 97.9451 2.36526 97.9451 2.67045C97.9074 2.89935 97.7187 3.12825 97.4545 3.20455Z" fill="white"/>
<path d="M89.1509 13.0471C88.5092 13.0471 87.9808 13.5812 87.9808 14.2297C87.9808 14.6112 88.1318 14.9164 88.396 15.1453V24.3012H88.1695L80.4321 16.0609C80.1679 15.7557 79.7149 15.5268 79.2998 15.5268H78.6204C78.0165 15.5268 77.4881 16.0228 77.4881 16.6332V24.1867C77.2616 24.4156 77.0729 24.7208 77.0729 25.0642C77.0729 25.7127 77.6013 26.2468 78.2429 26.2468C78.8846 26.2468 79.413 25.7127 79.413 25.0642C79.413 24.7208 79.262 24.3775 78.9978 24.1867V17.0909H79.2243C79.2243 17.0909 79.2243 17.0909 79.262 17.0909L86.9617 25.3312C87.226 25.6364 87.6789 25.8653 88.0941 25.8653H88.7734C89.3773 25.8653 89.868 25.3694 89.868 24.7208V15.1453C90.0945 14.9164 90.2832 14.6112 90.2832 14.2679C90.3209 13.5812 89.7925 13.0471 89.1509 13.0471ZM78.3939 25.6364C78.3562 25.6364 78.3184 25.6364 78.2807 25.6364C78.2429 25.6364 78.2052 25.6364 78.1674 25.6364C77.9032 25.5983 77.7145 25.3694 77.7145 25.1023C77.7145 24.7971 77.9787 24.5301 78.2807 24.5301C78.5826 24.5301 78.8468 24.7971 78.8468 25.1023C78.8091 25.3312 78.6204 25.5601 78.3939 25.6364ZM89.1509 14.802C88.8489 14.802 88.5847 14.5349 88.5847 14.2297C88.5847 13.9627 88.8112 13.6957 89.0754 13.6957C89.1131 13.6957 89.1131 13.6957 89.1509 13.6957C89.1886 13.6957 89.1886 13.6957 89.2264 13.6957C89.4906 13.7338 89.717 13.9627 89.717 14.2297C89.717 14.5731 89.4528 14.802 89.1509 14.802Z" fill="white"/>
<path d="M100.474 19.9141H93.0007C92.4723 19.9141 92.0571 19.4945 92.0571 18.9604V18.0067C92.0571 17.4726 92.4723 17.0529 93.0007 17.0529H100.889C101.116 17.32 101.418 17.4726 101.757 17.4726C102.399 17.4726 102.927 16.9385 102.927 16.2899C102.927 15.6414 102.399 15.1073 101.757 15.1073C101.418 15.1073 101.078 15.2599 100.889 15.5269H93.0007C91.642 15.5269 90.5096 16.6333 90.5096 18.0448V18.9985C90.5096 20.3719 91.6042 21.5164 93.0007 21.5164H100.474C101.002 21.5164 101.418 21.936 101.418 22.4701V23.4239C101.418 23.958 101.002 24.3776 100.474 24.3776H92.5478C92.3213 24.1487 92.0194 23.9579 91.6797 23.9579C91.0381 23.9579 90.5096 24.492 90.5096 25.1406C90.5096 25.7891 91.0381 26.3232 91.6797 26.3232C92.0194 26.3232 92.3591 26.1706 92.5478 25.9036H100.474C101.833 25.9036 102.927 24.7972 102.927 23.3857V22.432C102.927 21.0586 101.833 19.9141 100.474 19.9141ZM101.757 15.7558C102.021 15.7558 102.248 15.9466 102.286 16.2136C102.286 16.2518 102.286 16.2899 102.286 16.3281C102.286 16.3662 102.286 16.4044 102.286 16.4425C102.248 16.7096 102.021 16.9003 101.757 16.9003C101.455 16.9003 101.191 16.6333 101.191 16.3281C101.191 15.9847 101.455 15.7558 101.757 15.7558ZM91.6797 25.6365C91.4155 25.6365 91.2268 25.4458 91.1513 25.2169C91.1513 25.1787 91.1135 25.1024 91.1135 25.0643C91.1135 25.0261 91.1135 24.9498 91.1513 24.9117C91.2268 24.6828 91.4155 24.492 91.6797 24.492C91.9816 24.492 92.2458 24.7591 92.2458 25.0643C92.2081 25.4076 91.9816 25.6365 91.6797 25.6365Z" fill="white"/>
</g>
<defs>
<clipPath id="clip0">
<rect width="180" height="47" fill="white"/>
</clipPath>
</defs>
</svg>
